<svg xmlns="http://www.w3.org/2000/svg" viewBox="0 0 400 400" role="img" aria-labelledby="title"><title id="title">Кофе с молоком</title><defs><linearGradient id="bg" x2="1" y2="1"><stop stop-color="#f7e4ce"/><stop offset="1" stop-color="#c99569"/></linearGradient><linearGradient id="cup" y2="1"><stop stop-color="#fff"/><stop offset="1" stop-color="#ead7c5"/></linearGradient></defs><rect width="400" height="400" rx="40" fill="url(#bg)"/><ellipse cx="194" cy="317" rx="130" ry="25" fill="#74452f" opacity=".22"/><path d="M91 135h213v102c0 58-40 89-106 89s-107-31-107-89z" fill="url(#cup)"/><path d="M303 164h25c41 0 50 67 9 84l-38 15v-28l27-11c18-8 14-35-4-35h-19z" fill="#fff"/><ellipse cx="197" cy="139" rx="106" ry="37" fill="#6f3d28"/><path d="M123 137c29-34 120-30 147 1-32 23-115 23-147-1" fill="#f8eee4"/><path d="M154 132c17-14 42-14 58 0 12-9 27-10 39-1" fill="none" stroke="#c99c78" stroke-width="7" stroke-linecap="round"/><path d="M151 97c-22-27 15-35-2-61M203 91c-22-27 15-35-2-61M252 99c-22-27 15-35-2-61" fill="none" stroke="#fff" stroke-width="9" stroke-linecap="round" opacity=".72"/></svg>